<mxfile host="app.diagrams.net" modified="2023-11-08T00:40:38.172Z" agent="Mozilla/5.0 (Windows NT 10.0; Win64; x64) AppleWebKit/537.36 (KHTML, like Gecko) Chrome/119.0.0.0 Safari/537.36" etag="EOREn9NhWANIQUpErQNu" version="22.0.8" type="device">
  <diagram id="R2lEEEUBdFMjLlhIrx00" name="Page-1">
    <mxGraphModel dx="2730" dy="1871" grid="1" gridSize="10" guides="1" tooltips="1" connect="1" arrows="1" fold="1" page="1" pageScale="1" pageWidth="850" pageHeight="1100" math="0" shadow="0" extFonts="Permanent Marker^https://fonts.googleapis.com/css?family=Permanent+Marker">
      <root>
        <mxCell id="0" />
        <mxCell id="1" parent="0" />
        <mxCell id="C-vyLk0tnHw3VtMMgP7b-1" value="" style="edgeStyle=entityRelationEdgeStyle;endArrow=ERzeroToMany;startArrow=ERone;endFill=1;startFill=0;entryX=0;entryY=0.5;entryDx=0;entryDy=0;" parent="1" target="C-vyLk0tnHw3VtMMgP7b-3" edge="1">
          <mxGeometry width="100" height="100" relative="1" as="geometry">
            <mxPoint x="390" y="165" as="sourcePoint" />
            <mxPoint x="450" y="170.00000000000023" as="targetPoint" />
          </mxGeometry>
        </mxCell>
        <mxCell id="C-vyLk0tnHw3VtMMgP7b-2" value="reviews" style="shape=table;startSize=30;container=1;collapsible=1;childLayout=tableLayout;fixedRows=1;rowLines=0;fontStyle=1;align=center;resizeLast=1;" parent="1" vertex="1">
          <mxGeometry x="521" y="120" width="320" height="130" as="geometry" />
        </mxCell>
        <mxCell id="C-vyLk0tnHw3VtMMgP7b-3" value="" style="shape=partialRectangle;collapsible=0;dropTarget=0;pointerEvents=0;fillColor=none;points=[[0,0.5],[1,0.5]];portConstraint=eastwest;top=0;left=0;right=0;bottom=1;" parent="C-vyLk0tnHw3VtMMgP7b-2" vertex="1">
          <mxGeometry y="30" width="320" height="30" as="geometry" />
        </mxCell>
        <mxCell id="C-vyLk0tnHw3VtMMgP7b-4" value="PK,FK1" style="shape=partialRectangle;overflow=hidden;connectable=0;fillColor=none;top=0;left=0;bottom=0;right=0;fontStyle=1;" parent="C-vyLk0tnHw3VtMMgP7b-3" vertex="1">
          <mxGeometry width="69" height="30" as="geometry">
            <mxRectangle width="69" height="30" as="alternateBounds" />
          </mxGeometry>
        </mxCell>
        <mxCell id="C-vyLk0tnHw3VtMMgP7b-5" value="Name int NOT NULL " style="shape=partialRectangle;overflow=hidden;connectable=0;fillColor=none;top=0;left=0;bottom=0;right=0;align=left;spacingLeft=6;fontStyle=5;" parent="C-vyLk0tnHw3VtMMgP7b-3" vertex="1">
          <mxGeometry x="69" width="251" height="30" as="geometry">
            <mxRectangle width="251" height="30" as="alternateBounds" />
          </mxGeometry>
        </mxCell>
        <mxCell id="C-vyLk0tnHw3VtMMgP7b-6" value="" style="shape=partialRectangle;collapsible=0;dropTarget=0;pointerEvents=0;fillColor=none;points=[[0,0.5],[1,0.5]];portConstraint=eastwest;top=0;left=0;right=0;bottom=0;" parent="C-vyLk0tnHw3VtMMgP7b-2" vertex="1">
          <mxGeometry y="60" width="320" height="30" as="geometry" />
        </mxCell>
        <mxCell id="C-vyLk0tnHw3VtMMgP7b-7" value="" style="shape=partialRectangle;overflow=hidden;connectable=0;fillColor=none;top=0;left=0;bottom=0;right=0;" parent="C-vyLk0tnHw3VtMMgP7b-6" vertex="1">
          <mxGeometry width="69" height="30" as="geometry">
            <mxRectangle width="69" height="30" as="alternateBounds" />
          </mxGeometry>
        </mxCell>
        <mxCell id="C-vyLk0tnHw3VtMMgP7b-8" value="critic_score Numeric(5,2) NOT NULL" style="shape=partialRectangle;overflow=hidden;connectable=0;fillColor=none;top=0;left=0;bottom=0;right=0;align=left;spacingLeft=6;" parent="C-vyLk0tnHw3VtMMgP7b-6" vertex="1">
          <mxGeometry x="69" width="251" height="30" as="geometry">
            <mxRectangle width="251" height="30" as="alternateBounds" />
          </mxGeometry>
        </mxCell>
        <mxCell id="C-vyLk0tnHw3VtMMgP7b-9" value="" style="shape=partialRectangle;collapsible=0;dropTarget=0;pointerEvents=0;fillColor=none;points=[[0,0.5],[1,0.5]];portConstraint=eastwest;top=0;left=0;right=0;bottom=0;" parent="C-vyLk0tnHw3VtMMgP7b-2" vertex="1">
          <mxGeometry y="90" width="320" height="30" as="geometry" />
        </mxCell>
        <mxCell id="C-vyLk0tnHw3VtMMgP7b-10" value="" style="shape=partialRectangle;overflow=hidden;connectable=0;fillColor=none;top=0;left=0;bottom=0;right=0;" parent="C-vyLk0tnHw3VtMMgP7b-9" vertex="1">
          <mxGeometry width="69" height="30" as="geometry">
            <mxRectangle width="69" height="30" as="alternateBounds" />
          </mxGeometry>
        </mxCell>
        <mxCell id="C-vyLk0tnHw3VtMMgP7b-11" value="user_score Numeric(5,2) NOT NULL" style="shape=partialRectangle;overflow=hidden;connectable=0;fillColor=none;top=0;left=0;bottom=0;right=0;align=left;spacingLeft=6;" parent="C-vyLk0tnHw3VtMMgP7b-9" vertex="1">
          <mxGeometry x="69" width="251" height="30" as="geometry">
            <mxRectangle width="251" height="30" as="alternateBounds" />
          </mxGeometry>
        </mxCell>
        <mxCell id="C-vyLk0tnHw3VtMMgP7b-13" value="top_critic_years" style="shape=table;startSize=30;container=1;collapsible=1;childLayout=tableLayout;fixedRows=1;rowLines=0;fontStyle=1;align=center;resizeLast=1;" parent="1" vertex="1">
          <mxGeometry x="530" y="290" width="290" height="130" as="geometry" />
        </mxCell>
        <mxCell id="C-vyLk0tnHw3VtMMgP7b-14" value="" style="shape=partialRectangle;collapsible=0;dropTarget=0;pointerEvents=0;fillColor=none;points=[[0,0.5],[1,0.5]];portConstraint=eastwest;top=0;left=0;right=0;bottom=1;" parent="C-vyLk0tnHw3VtMMgP7b-13" vertex="1">
          <mxGeometry y="30" width="290" height="30" as="geometry" />
        </mxCell>
        <mxCell id="C-vyLk0tnHw3VtMMgP7b-15" value="PK" style="shape=partialRectangle;overflow=hidden;connectable=0;fillColor=none;top=0;left=0;bottom=0;right=0;fontStyle=1;" parent="C-vyLk0tnHw3VtMMgP7b-14" vertex="1">
          <mxGeometry width="30" height="30" as="geometry">
            <mxRectangle width="30" height="30" as="alternateBounds" />
          </mxGeometry>
        </mxCell>
        <mxCell id="C-vyLk0tnHw3VtMMgP7b-16" value="year INT NOTNULL" style="shape=partialRectangle;overflow=hidden;connectable=0;fillColor=none;top=0;left=0;bottom=0;right=0;align=left;spacingLeft=6;fontStyle=5;" parent="C-vyLk0tnHw3VtMMgP7b-14" vertex="1">
          <mxGeometry x="30" width="260" height="30" as="geometry">
            <mxRectangle width="260" height="30" as="alternateBounds" />
          </mxGeometry>
        </mxCell>
        <mxCell id="C-vyLk0tnHw3VtMMgP7b-17" value="" style="shape=partialRectangle;collapsible=0;dropTarget=0;pointerEvents=0;fillColor=none;points=[[0,0.5],[1,0.5]];portConstraint=eastwest;top=0;left=0;right=0;bottom=0;" parent="C-vyLk0tnHw3VtMMgP7b-13" vertex="1">
          <mxGeometry y="60" width="290" height="30" as="geometry" />
        </mxCell>
        <mxCell id="C-vyLk0tnHw3VtMMgP7b-18" value="FK1" style="shape=partialRectangle;overflow=hidden;connectable=0;fillColor=none;top=0;left=0;bottom=0;right=0;" parent="C-vyLk0tnHw3VtMMgP7b-17" vertex="1">
          <mxGeometry width="30" height="30" as="geometry">
            <mxRectangle width="30" height="30" as="alternateBounds" />
          </mxGeometry>
        </mxCell>
        <mxCell id="C-vyLk0tnHw3VtMMgP7b-19" value="year int NOT NULL" style="shape=partialRectangle;overflow=hidden;connectable=0;fillColor=none;top=0;left=0;bottom=0;right=0;align=left;spacingLeft=6;" parent="C-vyLk0tnHw3VtMMgP7b-17" vertex="1">
          <mxGeometry x="30" width="260" height="30" as="geometry">
            <mxRectangle width="260" height="30" as="alternateBounds" />
          </mxGeometry>
        </mxCell>
        <mxCell id="C-vyLk0tnHw3VtMMgP7b-20" value="" style="shape=partialRectangle;collapsible=0;dropTarget=0;pointerEvents=0;fillColor=none;points=[[0,0.5],[1,0.5]];portConstraint=eastwest;top=0;left=0;right=0;bottom=0;" parent="C-vyLk0tnHw3VtMMgP7b-13" vertex="1">
          <mxGeometry y="90" width="290" height="30" as="geometry" />
        </mxCell>
        <mxCell id="C-vyLk0tnHw3VtMMgP7b-21" value="" style="shape=partialRectangle;overflow=hidden;connectable=0;fillColor=none;top=0;left=0;bottom=0;right=0;" parent="C-vyLk0tnHw3VtMMgP7b-20" vertex="1">
          <mxGeometry width="30" height="30" as="geometry">
            <mxRectangle width="30" height="30" as="alternateBounds" />
          </mxGeometry>
        </mxCell>
        <mxCell id="C-vyLk0tnHw3VtMMgP7b-22" value="avg_critic_score Numeric(4,2) NOTNULL&#xa;" style="shape=partialRectangle;overflow=hidden;connectable=0;fillColor=none;top=0;left=0;bottom=0;right=0;align=left;spacingLeft=6;" parent="C-vyLk0tnHw3VtMMgP7b-20" vertex="1">
          <mxGeometry x="30" width="260" height="30" as="geometry">
            <mxRectangle width="260" height="30" as="alternateBounds" />
          </mxGeometry>
        </mxCell>
        <mxCell id="9JW9O_S7Eh-T2wbG3o-u-23" style="edgeStyle=orthogonalEdgeStyle;rounded=0;orthogonalLoop=1;jettySize=auto;html=1;exitX=0;exitY=0.75;exitDx=0;exitDy=0;entryX=1;entryY=0.5;entryDx=0;entryDy=0;" parent="1" source="C-vyLk0tnHw3VtMMgP7b-23" target="9JW9O_S7Eh-T2wbG3o-u-7" edge="1">
          <mxGeometry relative="1" as="geometry" />
        </mxCell>
        <mxCell id="C-vyLk0tnHw3VtMMgP7b-23" value="game_sales" style="shape=table;startSize=30;container=1;collapsible=1;childLayout=tableLayout;fixedRows=1;rowLines=0;fontStyle=1;align=center;resizeLast=1;" parent="1" vertex="1">
          <mxGeometry x="110" y="120" width="280" height="300" as="geometry" />
        </mxCell>
        <mxCell id="C-vyLk0tnHw3VtMMgP7b-24" value="" style="shape=partialRectangle;collapsible=0;dropTarget=0;pointerEvents=0;fillColor=none;points=[[0,0.5],[1,0.5]];portConstraint=eastwest;top=0;left=0;right=0;bottom=1;" parent="C-vyLk0tnHw3VtMMgP7b-23" vertex="1">
          <mxGeometry y="30" width="280" height="70" as="geometry" />
        </mxCell>
        <mxCell id="C-vyLk0tnHw3VtMMgP7b-25" value="PK" style="shape=partialRectangle;overflow=hidden;connectable=0;fillColor=none;top=0;left=0;bottom=0;right=0;fontStyle=1;" parent="C-vyLk0tnHw3VtMMgP7b-24" vertex="1">
          <mxGeometry width="30" height="70" as="geometry">
            <mxRectangle width="30" height="70" as="alternateBounds" />
          </mxGeometry>
        </mxCell>
        <mxCell id="C-vyLk0tnHw3VtMMgP7b-26" value="&#xa;  Name  VARCHAR(100) NOT NULL" style="shape=partialRectangle;overflow=hidden;connectable=0;fillColor=none;top=0;left=0;bottom=0;right=0;align=left;spacingLeft=6;fontStyle=5;" parent="C-vyLk0tnHw3VtMMgP7b-24" vertex="1">
          <mxGeometry x="30" width="250" height="70" as="geometry">
            <mxRectangle width="250" height="70" as="alternateBounds" />
          </mxGeometry>
        </mxCell>
        <mxCell id="C-vyLk0tnHw3VtMMgP7b-27" value="" style="shape=partialRectangle;collapsible=0;dropTarget=0;pointerEvents=0;fillColor=none;points=[[0,0.5],[1,0.5]];portConstraint=eastwest;top=0;left=0;right=0;bottom=0;" parent="C-vyLk0tnHw3VtMMgP7b-23" vertex="1">
          <mxGeometry y="100" width="280" height="30" as="geometry" />
        </mxCell>
        <mxCell id="C-vyLk0tnHw3VtMMgP7b-28" value="&#xa;&#xa;&lt;table style=&quot;border-collapse:&#xa; collapse;width:223pt&quot; width=&quot;297&quot; cellspacing=&quot;0&quot; cellpadding=&quot;0&quot; border=&quot;0&quot;&gt;&#xa; &lt;colgroup&gt;&lt;col style=&quot;mso-width-source:userset;mso-width-alt:3700;width:80pt&quot; width=&quot;106&quot;&gt;&#xa; &lt;col style=&quot;mso-width-source:userset;mso-width-alt:6656;width:143pt&quot; width=&quot;191&quot;&gt;&#xa; &lt;/colgroup&gt;&lt;tbody&gt;&lt;tr style=&quot;height:14.5pt&quot; height=&quot;19&quot;&gt;&#xa;&#xa;  &lt;td style=&quot;height:14.5pt;width:80pt&quot; width=&quot;106&quot; class=&quot;xl65&quot; height=&quot;19&quot;&gt;Platform&lt;/td&gt;&#xa;  &lt;td style=&quot;border-left:none;width:143pt&quot; width=&quot;191&quot; class=&quot;xl65&quot;&gt;VARCHAR(64)&lt;/td&gt;&#xa;&#xa; &lt;/tr&gt;&#xa;&lt;/tbody&gt;&lt;/table&gt;&#xa;&#xa;&#xa;&#xa;&#xa;" style="shape=partialRectangle;overflow=hidden;connectable=0;fillColor=none;top=0;left=0;bottom=0;right=0;" parent="C-vyLk0tnHw3VtMMgP7b-27" vertex="1">
          <mxGeometry width="30" height="30" as="geometry">
            <mxRectangle width="30" height="30" as="alternateBounds" />
          </mxGeometry>
        </mxCell>
        <mxCell id="C-vyLk0tnHw3VtMMgP7b-29" value="Platform VARCHAR(64) NOTNULL" style="shape=partialRectangle;overflow=hidden;connectable=0;fillColor=none;top=0;left=0;bottom=0;right=0;align=left;spacingLeft=6;" parent="C-vyLk0tnHw3VtMMgP7b-27" vertex="1">
          <mxGeometry x="30" width="250" height="30" as="geometry">
            <mxRectangle width="250" height="30" as="alternateBounds" />
          </mxGeometry>
        </mxCell>
        <mxCell id="9JW9O_S7Eh-T2wbG3o-u-1" value="Publisher VARCHAR(64) NOTNULL" style="text;html=1;strokeColor=none;fillColor=none;align=center;verticalAlign=middle;whiteSpace=wrap;rounded=0;" parent="1" vertex="1">
          <mxGeometry x="140" y="250" width="200" height="30" as="geometry" />
        </mxCell>
        <mxCell id="9JW9O_S7Eh-T2wbG3o-u-2" value="Developer VARCHAR(64) NOTNULL" style="text;html=1;strokeColor=none;fillColor=none;align=center;verticalAlign=middle;whiteSpace=wrap;rounded=0;" parent="1" vertex="1">
          <mxGeometry x="140" y="290" width="210" height="30" as="geometry" />
        </mxCell>
        <mxCell id="9JW9O_S7Eh-T2wbG3o-u-3" value="&lt;table style=&quot;border-collapse:&lt;br/&gt; collapse;width:80pt&quot; width=&quot;106&quot; cellspacing=&quot;0&quot; cellpadding=&quot;0&quot; border=&quot;0&quot;&gt;&lt;tbody&gt;&lt;tr style=&quot;height:14.5pt&quot; height=&quot;19&quot;&gt;&lt;td style=&quot;height:14.5pt;width:80pt&quot; width=&quot;106&quot; class=&quot;xl65&quot; height=&quot;19&quot;&gt;&lt;/td&gt;&lt;/tr&gt;&lt;/tbody&gt;&lt;/table&gt;Total_shipped Numeric(5,2) NOTNULL&lt;br&gt;" style="text;html=1;strokeColor=none;fillColor=none;align=center;verticalAlign=middle;whiteSpace=wrap;rounded=0;" parent="1" vertex="1">
          <mxGeometry x="140" y="320" width="220" height="30" as="geometry" />
        </mxCell>
        <mxCell id="9JW9O_S7Eh-T2wbG3o-u-22" style="edgeStyle=orthogonalEdgeStyle;rounded=0;orthogonalLoop=1;jettySize=auto;html=1;entryX=0;entryY=0.5;entryDx=0;entryDy=0;" parent="1" target="C-vyLk0tnHw3VtMMgP7b-14" edge="1">
          <mxGeometry relative="1" as="geometry">
            <mxPoint x="390" y="375" as="sourcePoint" />
            <Array as="points">
              <mxPoint x="410" y="375" />
              <mxPoint x="410" y="340" />
              <mxPoint x="530" y="340" />
            </Array>
          </mxGeometry>
        </mxCell>
        <mxCell id="9JW9O_S7Eh-T2wbG3o-u-4" value="Year INT NOTNULL (FK)" style="text;html=1;strokeColor=none;fillColor=none;align=center;verticalAlign=middle;whiteSpace=wrap;rounded=0;" parent="1" vertex="1">
          <mxGeometry x="140" y="360" width="140" height="30" as="geometry" />
        </mxCell>
        <mxCell id="9JW9O_S7Eh-T2wbG3o-u-6" value="top_critic_year_four_games" style="shape=table;startSize=30;container=1;collapsible=1;childLayout=tableLayout;fixedRows=1;rowLines=0;fontStyle=1;align=center;resizeLast=1;" parent="1" vertex="1">
          <mxGeometry x="-290" y="140" width="330" height="180" as="geometry" />
        </mxCell>
        <mxCell id="9JW9O_S7Eh-T2wbG3o-u-7" value="" style="shape=partialRectangle;collapsible=0;dropTarget=0;pointerEvents=0;fillColor=none;points=[[0,0.5],[1,0.5]];portConstraint=eastwest;top=0;left=0;right=0;bottom=1;" parent="9JW9O_S7Eh-T2wbG3o-u-6" vertex="1">
          <mxGeometry y="30" width="330" height="70" as="geometry" />
        </mxCell>
        <mxCell id="9JW9O_S7Eh-T2wbG3o-u-8" value="PK" style="shape=partialRectangle;overflow=hidden;connectable=0;fillColor=none;top=0;left=0;bottom=0;right=0;fontStyle=1;" parent="9JW9O_S7Eh-T2wbG3o-u-7" vertex="1">
          <mxGeometry width="30" height="70" as="geometry">
            <mxRectangle width="30" height="70" as="alternateBounds" />
          </mxGeometry>
        </mxCell>
        <mxCell id="9JW9O_S7Eh-T2wbG3o-u-9" value="year INT NOTNULL" style="shape=partialRectangle;overflow=hidden;connectable=0;fillColor=none;top=0;left=0;bottom=0;right=0;align=left;spacingLeft=6;fontStyle=5;" parent="9JW9O_S7Eh-T2wbG3o-u-7" vertex="1">
          <mxGeometry x="30" width="300" height="70" as="geometry">
            <mxRectangle width="300" height="70" as="alternateBounds" />
          </mxGeometry>
        </mxCell>
        <mxCell id="9JW9O_S7Eh-T2wbG3o-u-10" value="" style="shape=partialRectangle;collapsible=0;dropTarget=0;pointerEvents=0;fillColor=none;points=[[0,0.5],[1,0.5]];portConstraint=eastwest;top=0;left=0;right=0;bottom=0;" parent="9JW9O_S7Eh-T2wbG3o-u-6" vertex="1">
          <mxGeometry y="100" width="330" height="30" as="geometry" />
        </mxCell>
        <mxCell id="9JW9O_S7Eh-T2wbG3o-u-11" value="&#xa;&#xa;&lt;table style=&quot;border-collapse:&#xa; collapse;width:223pt&quot; width=&quot;297&quot; cellspacing=&quot;0&quot; cellpadding=&quot;0&quot; border=&quot;0&quot;&gt;&#xa; &lt;colgroup&gt;&lt;col style=&quot;mso-width-source:userset;mso-width-alt:3700;width:80pt&quot; width=&quot;106&quot;&gt;&#xa; &lt;col style=&quot;mso-width-source:userset;mso-width-alt:6656;width:143pt&quot; width=&quot;191&quot;&gt;&#xa; &lt;/colgroup&gt;&lt;tbody&gt;&lt;tr style=&quot;height:14.5pt&quot; height=&quot;19&quot;&gt;&#xa;&#xa;  &lt;td style=&quot;height:14.5pt;width:80pt&quot; width=&quot;106&quot; class=&quot;xl65&quot; height=&quot;19&quot;&gt;Platform&lt;/td&gt;&#xa;  &lt;td style=&quot;border-left:none;width:143pt&quot; width=&quot;191&quot; class=&quot;xl65&quot;&gt;VARCHAR(64)&lt;/td&gt;&#xa;&#xa; &lt;/tr&gt;&#xa;&lt;/tbody&gt;&lt;/table&gt;&#xa;&#xa;&#xa;&#xa;&#xa;" style="shape=partialRectangle;overflow=hidden;connectable=0;fillColor=none;top=0;left=0;bottom=0;right=0;" parent="9JW9O_S7Eh-T2wbG3o-u-10" vertex="1">
          <mxGeometry width="30" height="30" as="geometry">
            <mxRectangle width="30" height="30" as="alternateBounds" />
          </mxGeometry>
        </mxCell>
        <mxCell id="9JW9O_S7Eh-T2wbG3o-u-12" value="Avg_critic_score VARCHAR(4,2) NOTNULL" style="shape=partialRectangle;overflow=hidden;connectable=0;fillColor=none;top=0;left=0;bottom=0;right=0;align=left;spacingLeft=6;" parent="9JW9O_S7Eh-T2wbG3o-u-10" vertex="1">
          <mxGeometry x="30" width="300" height="30" as="geometry">
            <mxRectangle width="300" height="30" as="alternateBounds" />
          </mxGeometry>
        </mxCell>
        <mxCell id="9JW9O_S7Eh-T2wbG3o-u-13" value="Num_games int NOTNULL" style="text;html=1;strokeColor=none;fillColor=none;align=center;verticalAlign=middle;whiteSpace=wrap;rounded=0;" parent="1" vertex="1">
          <mxGeometry x="-260" y="280" width="160" height="30" as="geometry" />
        </mxCell>
        <mxCell id="9JW9O_S7Eh-T2wbG3o-u-14" value="top_user_year_four_games" style="shape=table;startSize=30;container=1;collapsible=1;childLayout=tableLayout;fixedRows=1;rowLines=0;fontStyle=1;align=center;resizeLast=1;" parent="1" vertex="1">
          <mxGeometry x="30" y="-240" width="330" height="200" as="geometry" />
        </mxCell>
        <mxCell id="9JW9O_S7Eh-T2wbG3o-u-15" value="" style="shape=partialRectangle;collapsible=0;dropTarget=0;pointerEvents=0;fillColor=none;points=[[0,0.5],[1,0.5]];portConstraint=eastwest;top=0;left=0;right=0;bottom=1;" parent="9JW9O_S7Eh-T2wbG3o-u-14" vertex="1">
          <mxGeometry y="30" width="330" height="70" as="geometry" />
        </mxCell>
        <mxCell id="9JW9O_S7Eh-T2wbG3o-u-16" value="PK" style="shape=partialRectangle;overflow=hidden;connectable=0;fillColor=none;top=0;left=0;bottom=0;right=0;fontStyle=1;" parent="9JW9O_S7Eh-T2wbG3o-u-15" vertex="1">
          <mxGeometry width="30" height="70" as="geometry">
            <mxRectangle width="30" height="70" as="alternateBounds" />
          </mxGeometry>
        </mxCell>
        <mxCell id="9JW9O_S7Eh-T2wbG3o-u-17" value="year INT NOTNULL" style="shape=partialRectangle;overflow=hidden;connectable=0;fillColor=none;top=0;left=0;bottom=0;right=0;align=left;spacingLeft=6;fontStyle=5;" parent="9JW9O_S7Eh-T2wbG3o-u-15" vertex="1">
          <mxGeometry x="30" width="300" height="70" as="geometry">
            <mxRectangle width="300" height="70" as="alternateBounds" />
          </mxGeometry>
        </mxCell>
        <mxCell id="9JW9O_S7Eh-T2wbG3o-u-18" value="" style="shape=partialRectangle;collapsible=0;dropTarget=0;pointerEvents=0;fillColor=none;points=[[0,0.5],[1,0.5]];portConstraint=eastwest;top=0;left=0;right=0;bottom=0;" parent="9JW9O_S7Eh-T2wbG3o-u-14" vertex="1">
          <mxGeometry y="100" width="330" height="30" as="geometry" />
        </mxCell>
        <mxCell id="9JW9O_S7Eh-T2wbG3o-u-19" value="&#xa;&#xa;&lt;table style=&quot;border-collapse:&#xa; collapse;width:223pt&quot; width=&quot;297&quot; cellspacing=&quot;0&quot; cellpadding=&quot;0&quot; border=&quot;0&quot;&gt;&#xa; &lt;colgroup&gt;&lt;col style=&quot;mso-width-source:userset;mso-width-alt:3700;width:80pt&quot; width=&quot;106&quot;&gt;&#xa; &lt;col style=&quot;mso-width-source:userset;mso-width-alt:6656;width:143pt&quot; width=&quot;191&quot;&gt;&#xa; &lt;/colgroup&gt;&lt;tbody&gt;&lt;tr style=&quot;height:14.5pt&quot; height=&quot;19&quot;&gt;&#xa;&#xa;  &lt;td style=&quot;height:14.5pt;width:80pt&quot; width=&quot;106&quot; class=&quot;xl65&quot; height=&quot;19&quot;&gt;Platform&lt;/td&gt;&#xa;  &lt;td style=&quot;border-left:none;width:143pt&quot; width=&quot;191&quot; class=&quot;xl65&quot;&gt;VARCHAR(64)&lt;/td&gt;&#xa;&#xa; &lt;/tr&gt;&#xa;&lt;/tbody&gt;&lt;/table&gt;&#xa;&#xa;&#xa;&#xa;&#xa;" style="shape=partialRectangle;overflow=hidden;connectable=0;fillColor=none;top=0;left=0;bottom=0;right=0;" parent="9JW9O_S7Eh-T2wbG3o-u-18" vertex="1">
          <mxGeometry width="30" height="30" as="geometry">
            <mxRectangle width="30" height="30" as="alternateBounds" />
          </mxGeometry>
        </mxCell>
        <mxCell id="9JW9O_S7Eh-T2wbG3o-u-20" value="Avg_User_score VARCHAR(4,2) NOTNULL" style="shape=partialRectangle;overflow=hidden;connectable=0;fillColor=none;top=0;left=0;bottom=0;right=0;align=left;spacingLeft=6;" parent="9JW9O_S7Eh-T2wbG3o-u-18" vertex="1">
          <mxGeometry x="30" width="300" height="30" as="geometry">
            <mxRectangle width="300" height="30" as="alternateBounds" />
          </mxGeometry>
        </mxCell>
        <mxCell id="9JW9O_S7Eh-T2wbG3o-u-21" value="num_games int NOTNULL" style="text;html=1;strokeColor=none;fillColor=none;align=center;verticalAlign=middle;whiteSpace=wrap;rounded=0;" parent="1" vertex="1">
          <mxGeometry x="60" y="-105" width="160" height="30" as="geometry" />
        </mxCell>
        <mxCell id="9JW9O_S7Eh-T2wbG3o-u-32" style="edgeStyle=orthogonalEdgeStyle;rounded=0;orthogonalLoop=1;jettySize=auto;html=1;exitX=0;exitY=0.5;exitDx=0;exitDy=0;entryX=0.5;entryY=0;entryDx=0;entryDy=0;" parent="1" source="9JW9O_S7Eh-T2wbG3o-u-15" target="C-vyLk0tnHw3VtMMgP7b-23" edge="1">
          <mxGeometry relative="1" as="geometry" />
        </mxCell>
        <mxCell id="xhG-DOse7Jhq2R4yebWC-1" value="game_sales_global" style="shape=table;startSize=30;container=1;collapsible=1;childLayout=tableLayout;fixedRows=1;rowLines=0;fontStyle=1;align=center;resizeLast=1;" vertex="1" parent="1">
          <mxGeometry x="440" y="-320" width="330" height="410" as="geometry" />
        </mxCell>
        <mxCell id="xhG-DOse7Jhq2R4yebWC-2" value="" style="shape=partialRectangle;collapsible=0;dropTarget=0;pointerEvents=0;fillColor=none;points=[[0,0.5],[1,0.5]];portConstraint=eastwest;top=0;left=0;right=0;bottom=1;" vertex="1" parent="xhG-DOse7Jhq2R4yebWC-1">
          <mxGeometry y="30" width="330" height="70" as="geometry" />
        </mxCell>
        <mxCell id="xhG-DOse7Jhq2R4yebWC-3" value="PK" style="shape=partialRectangle;overflow=hidden;connectable=0;fillColor=none;top=0;left=0;bottom=0;right=0;fontStyle=1;" vertex="1" parent="xhG-DOse7Jhq2R4yebWC-2">
          <mxGeometry width="30" height="70" as="geometry">
            <mxRectangle width="30" height="70" as="alternateBounds" />
          </mxGeometry>
        </mxCell>
        <mxCell id="xhG-DOse7Jhq2R4yebWC-4" value="Publisher VARCHAR(64) NOTNULL" style="shape=partialRectangle;overflow=hidden;connectable=0;fillColor=none;top=0;left=0;bottom=0;right=0;align=left;spacingLeft=6;fontStyle=5;" vertex="1" parent="xhG-DOse7Jhq2R4yebWC-2">
          <mxGeometry x="30" width="300" height="70" as="geometry">
            <mxRectangle width="300" height="70" as="alternateBounds" />
          </mxGeometry>
        </mxCell>
        <mxCell id="xhG-DOse7Jhq2R4yebWC-5" value="" style="shape=partialRectangle;collapsible=0;dropTarget=0;pointerEvents=0;fillColor=none;points=[[0,0.5],[1,0.5]];portConstraint=eastwest;top=0;left=0;right=0;bottom=0;" vertex="1" parent="xhG-DOse7Jhq2R4yebWC-1">
          <mxGeometry y="100" width="330" height="30" as="geometry" />
        </mxCell>
        <mxCell id="xhG-DOse7Jhq2R4yebWC-6" value="&#xa;&#xa;&lt;table style=&quot;border-collapse:&#xa; collapse;width:223pt&quot; width=&quot;297&quot; cellspacing=&quot;0&quot; cellpadding=&quot;0&quot; border=&quot;0&quot;&gt;&#xa; &lt;colgroup&gt;&lt;col style=&quot;mso-width-source:userset;mso-width-alt:3700;width:80pt&quot; width=&quot;106&quot;&gt;&#xa; &lt;col style=&quot;mso-width-source:userset;mso-width-alt:6656;width:143pt&quot; width=&quot;191&quot;&gt;&#xa; &lt;/colgroup&gt;&lt;tbody&gt;&lt;tr style=&quot;height:14.5pt&quot; height=&quot;19&quot;&gt;&#xa;&#xa;  &lt;td style=&quot;height:14.5pt;width:80pt&quot; width=&quot;106&quot; class=&quot;xl65&quot; height=&quot;19&quot;&gt;Platform&lt;/td&gt;&#xa;  &lt;td style=&quot;border-left:none;width:143pt&quot; width=&quot;191&quot; class=&quot;xl65&quot;&gt;VARCHAR(64)&lt;/td&gt;&#xa;&#xa; &lt;/tr&gt;&#xa;&lt;/tbody&gt;&lt;/table&gt;&#xa;&#xa;&#xa;&#xa;&#xa;" style="shape=partialRectangle;overflow=hidden;connectable=0;fillColor=none;top=0;left=0;bottom=0;right=0;" vertex="1" parent="xhG-DOse7Jhq2R4yebWC-5">
          <mxGeometry width="30" height="30" as="geometry">
            <mxRectangle width="30" height="30" as="alternateBounds" />
          </mxGeometry>
        </mxCell>
        <mxCell id="xhG-DOse7Jhq2R4yebWC-7" value="Game VARCHAR(64)  NOTNULL" style="shape=partialRectangle;overflow=hidden;connectable=0;fillColor=none;top=0;left=0;bottom=0;right=0;align=left;spacingLeft=6;" vertex="1" parent="xhG-DOse7Jhq2R4yebWC-5">
          <mxGeometry x="30" width="300" height="30" as="geometry">
            <mxRectangle width="300" height="30" as="alternateBounds" />
          </mxGeometry>
        </mxCell>
        <mxCell id="xhG-DOse7Jhq2R4yebWC-8" value="Platform VARCHAR(64) NOTNULL" style="text;html=1;strokeColor=none;fillColor=none;align=center;verticalAlign=middle;whiteSpace=wrap;rounded=0;" vertex="1" parent="1">
          <mxGeometry x="480" y="-175" width="220" height="30" as="geometry" />
        </mxCell>
        <mxCell id="xhG-DOse7Jhq2R4yebWC-9" value="Year&amp;nbsp; INT NOTNULL" style="text;html=1;strokeColor=none;fillColor=none;align=center;verticalAlign=middle;whiteSpace=wrap;rounded=0;" vertex="1" parent="1">
          <mxGeometry x="490" y="-145" width="130" height="30" as="geometry" />
        </mxCell>
        <mxCell id="xhG-DOse7Jhq2R4yebWC-10" value="Genre&amp;nbsp; VARCHAR(64) NOTNULL" style="text;html=1;strokeColor=none;fillColor=none;align=center;verticalAlign=middle;whiteSpace=wrap;rounded=0;" vertex="1" parent="1">
          <mxGeometry x="480" y="-115" width="220" height="30" as="geometry" />
        </mxCell>
        <mxCell id="xhG-DOse7Jhq2R4yebWC-11" value="NA_SALES&amp;nbsp; Number(5,2) NOTNULL" style="text;html=1;strokeColor=none;fillColor=none;align=center;verticalAlign=middle;whiteSpace=wrap;rounded=0;" vertex="1" parent="1">
          <mxGeometry x="490" y="-85" width="220" height="30" as="geometry" />
        </mxCell>
        <mxCell id="xhG-DOse7Jhq2R4yebWC-12" value="EU_SALES Number(5,2) NOTNULL" style="text;html=1;strokeColor=none;fillColor=none;align=center;verticalAlign=middle;whiteSpace=wrap;rounded=0;" vertex="1" parent="1">
          <mxGeometry x="490" y="-55" width="220" height="30" as="geometry" />
        </mxCell>
        <mxCell id="xhG-DOse7Jhq2R4yebWC-13" value="JP_SALES Number(5,2) NOTNULL" style="text;html=1;strokeColor=none;fillColor=none;align=center;verticalAlign=middle;whiteSpace=wrap;rounded=0;" vertex="1" parent="1">
          <mxGeometry x="490" y="-20" width="210" height="30" as="geometry" />
        </mxCell>
        <mxCell id="xhG-DOse7Jhq2R4yebWC-14" value="Other_sales Number(5,2) NOTNULL" style="text;html=1;strokeColor=none;fillColor=none;align=center;verticalAlign=middle;whiteSpace=wrap;rounded=0;" vertex="1" parent="1">
          <mxGeometry x="480" y="10" width="220" height="30" as="geometry" />
        </mxCell>
        <mxCell id="xhG-DOse7Jhq2R4yebWC-15" value="Global_sales&amp;nbsp; Number(5,2) NOTNULL" style="text;html=1;strokeColor=none;fillColor=none;align=center;verticalAlign=middle;whiteSpace=wrap;rounded=0;" vertex="1" parent="1">
          <mxGeometry x="480" y="40" width="230" height="30" as="geometry" />
        </mxCell>
        <mxCell id="xhG-DOse7Jhq2R4yebWC-16" style="edgeStyle=orthogonalEdgeStyle;rounded=0;orthogonalLoop=1;jettySize=auto;html=1;entryX=0.944;entryY=-0.014;entryDx=0;entryDy=0;entryPerimeter=0;" edge="1" parent="1" source="xhG-DOse7Jhq2R4yebWC-2" target="C-vyLk0tnHw3VtMMgP7b-23">
          <mxGeometry relative="1" as="geometry" />
        </mxCell>
      </root>
    </mxGraphModel>
  </diagram>
</mxfile>
